<?xml version="1.0" encoding="iso-8859-1"?>
<!-- Uploaded to: SVG Repo, www.svgrepo.com, Generator: SVG Repo Mixer Tools -->
<svg fill="#000000" height="800px" width="800px" version="1.1" id="Layer_1" xmlns="http://www.w3.org/2000/svg" xmlns:xlink="http://www.w3.org/1999/xlink" 
	 viewBox="0 0 512.001 512.001" xml:space="preserve">
<g>
	<g>
		<path d="M504.371,218.697l-33.9-21.997l14.495-37.723c3.705-9.645-2.13-20.32-12.243-22.413
			c-44.013-9.104-83.431-11.335-117.488-6.667c-6.148-33.886-20.476-70.704-42.727-109.734c-5.115-8.974-17.074-11.222-25.1-4.718
			l-31.396,25.444l-31.397-25.444c-8.028-6.504-19.983-4.255-25.1,4.717c-22.261,39.047-36.562,75.846-42.646,109.677
			c-34.134-4.63-73.588-2.381-117.592,6.724c-10.118,2.093-15.946,12.772-12.243,22.412l14.497,37.723L7.631,218.695
			c-8.649,5.612-10.235,17.675-3.269,25.329c30.26,33.241,60.843,58.215,91.141,74.455c-14.949,31.034-25.001,69.247-29.942,113.906
			c-1.138,10.285,7.241,19.117,17.533,18.57l40.355-2.131l10.446,39.041c2.68,10.02,13.705,15.169,23.078,10.936
			c40.966-18.508,74.17-39.878,98.977-63.673c24.896,23.807,58.134,45.176,99.075,63.673c9.415,4.253,20.411-0.959,23.078-10.936
			l10.446-39.041l40.355,2.131c10.291,0.547,18.672-8.284,17.533-18.57c-4.944-44.681-15.007-82.863-29.972-113.809
			c30.334-16.32,60.929-41.327,91.172-74.55C514.58,236.404,513.053,224.332,504.371,218.697z M386.814,295.793
			c-9.209,4.021-12.829,15.207-7.722,23.863c14.867,25.192,25.419,57.68,31.457,96.778l-33.789-1.785
			c-7.928-0.424-15.019,4.755-17.065,12.399l-8.746,32.689c-35.314-17.817-63.012-37.904-82.494-59.854
			c-6.676-7.52-18.427-7.503-25.081,0.03c-19.367,21.923-47.006,41.997-82.324,59.821l-8.745-32.688
			c-2.046-7.645-9.162-12.816-17.065-12.399l-33.789,1.785c6.034-39.096,16.58-71.645,31.432-96.955
			c5.088-8.667,1.442-19.843-7.779-23.846c-26.835-11.644-54.468-31.723-82.333-59.806l28.386-18.418
			c6.639-4.306,9.358-12.672,6.52-20.059l-12.139-31.586c39.051-6.343,73.269-6.373,101.929-0.066
			c9.809,2.161,19.319-4.758,20.274-14.766c2.783-29.117,13.344-61.603,31.436-96.774l26.289,21.303
			c6.149,4.984,14.945,4.984,21.094,0l26.288-21.304c18.097,35.172,28.697,67.698,31.558,96.898
			c0.978,9.982,10.477,16.9,20.308,14.719c28.553-6.352,62.715-6.343,101.752-0.007l-12.137,31.585
			c-2.839,7.387-0.119,15.753,6.518,20.061l28.384,18.418C441.371,263.914,413.708,284.047,386.814,295.793z"/>
	</g>
</g>
<g>
	<g>
		<path d="M368.172,223.067c-2.859-8.799-12.312-13.617-21.106-10.754l-50.559,16.427c-5.865-7.631-13.865-13.534-23.102-16.81
			v-53.134c0-9.251-7.5-16.751-16.751-16.751c-9.251,0-16.639,7.5-16.639,16.751v53.134c-9.238,3.276-17.348,9.18-23.214,16.81
			l-50.558-16.427c-8.799-2.862-18.249,1.957-21.106,10.754c-2.859,8.798,1.956,18.249,10.755,21.106l50.542,16.423
			c0.257,10.065,3.479,19.403,8.834,27.168l-31.243,43.003c-5.437,7.484-3.778,17.959,3.706,23.398
			c7.485,5.437,17.959,3.778,23.398-3.706l31.231-42.986c4.533,1.348,9.328,2.083,14.293,2.083c4.965,0,9.759-0.735,14.293-2.083
			l31.231,42.986c5.438,7.484,15.912,9.144,23.398,3.706c7.484-5.438,9.144-15.913,3.706-23.398l-31.243-43.003
			c5.357-7.765,8.579-17.102,8.835-27.167l50.543-16.423C366.215,241.316,371.03,231.866,368.172,223.067z M256.653,276.052
			c-9.236,0-16.751-7.513-16.751-16.751c0-9.237,7.515-16.751,16.751-16.751c9.237,0,16.751,7.515,16.751,16.751
			C273.405,268.537,265.89,276.052,256.653,276.052z"/>
	</g>
</g>
</svg>