<?xml version="1.0" encoding="iso-8859-1"?>
<!-- Uploaded to: SVG Repo, www.svgrepo.com, Generator: SVG Repo Mixer Tools -->
<!DOCTYPE svg PUBLIC "-//W3C//DTD SVG 1.1//EN" "http://www.w3.org/Graphics/SVG/1.1/DTD/svg11.dtd">
<svg fill="#000000" height="800px" width="800px" version="1.1" id="Capa_1" xmlns="http://www.w3.org/2000/svg" xmlns:xlink="http://www.w3.org/1999/xlink" 
	 viewBox="0 0 182.74 182.74" xml:space="preserve">
<path d="M170.006,58.37h-55.649l0.013-29.764c0-8.608-4.652-13.881-13.813-15.778C99.107,5.612,96.164,0,91.541,0
	c-4.653,0-7.605,5.686-9.045,12.971c-8.71,2.014-13.126,7.242-13.126,15.635V58.37H12.734c-4.061,0-7.364,3.469-7.364,7.733v13.883
	c0,3.872,2.931,7.64,6.679,8.58l18.663,4.637c2.909,0.73,7.602,1.167,10.458,1.167h30.395c0.849,8.911,1.623,18.373,1.623,23.288
	c0,4.185,1.318,9.516,1.374,9.74l6.189,20.412l-19.643,5.618c-2.657,0.735-4.738,3.463-4.738,6.21v5.63
	c0,2.909,2.376,5.103,5.527,5.103H84.32c1.649,8.539,3.884,12.37,7.221,12.37c3.337,0,5.572-3.831,7.221-12.37h22.686
	c2.911,0,5.923-1.909,5.923-5.103v-5.63c0-2.722-2.211-5.553-4.924-6.311l-20.206-5.682l6.516-22.229
	c0.299-0.755,1.432-3.905,1.432-8.232c0-4.811,0.835-14.062,1.756-22.814h29.087c2.801,0,7.403-0.4,10.405-1.139l19.245-4.622
	c3.751-0.924,6.689-4.711,6.689-8.623V66.103C177.37,61.839,174.066,58.37,170.006,58.37z"/>
</svg>